<svg xmlns:xlink="http://www.w3.org/1999/xlink" xmlns="http://www.w3.org/2000/svg" width="512" height="513" viewBox="0 0 512 513" fill="none"><g style="mix-blend-mode:multiply" transform="rotate(16.309 207.451 377.065)"><circle cx="207.451" cy="377.065" r="61" fill="url(#a)"/><circle cx="207.451" cy="377.065" r="61" fill="url(#b)" fill-opacity=".5"/></g><path d="M253.508 111.452c.088-.356.184-.713.288-1.068 3.877-13.252 17.763-20.851 31.015-16.974 13.232 3.872 20.828 17.723 16.99 30.957 52.823 22.981 82.264 81.808 66.866 139.165-14.688 54.715-10.781 93.421 1.36 126.545 5.2 14.176-7.791 28.315-22.364 24.402L68.83 339.603c-14.573-3.914-18.73-22.657-7.132-32.323 27.1-22.581 49.875-54.122 64.569-108.841 15.375-57.24 70.135-93.375 127.241-86.987Z" fill="url(#c)"/><path d="M253.508 111.452c.088-.356.184-.713.288-1.068 3.877-13.252 17.763-20.851 31.015-16.974 13.232 3.872 20.828 17.723 16.99 30.957 52.823 22.981 82.264 81.808 66.866 139.165-14.688 54.715-10.781 93.421 1.36 126.545 5.2 14.176-7.791 28.315-22.364 24.402L68.83 339.603c-14.573-3.914-18.73-22.657-7.132-32.323 27.1-22.581 49.875-54.122 64.569-108.841 15.375-57.24 70.135-93.375 127.241-86.987Z" fill="url(#d)" fill-opacity=".6"/><path d="M253.508 111.452c.088-.356.184-.713.288-1.068 3.877-13.252 17.763-20.851 31.015-16.974 13.232 3.872 20.828 17.723 16.99 30.957 52.823 22.981 82.264 81.808 66.866 139.165-14.688 54.715-10.781 93.421 1.36 126.545 5.2 14.176-7.791 28.315-22.364 24.402L68.83 339.603c-14.573-3.914-18.73-22.657-7.132-32.323 27.1-22.581 49.875-54.122 64.569-108.841 15.375-57.24 70.135-93.375 127.241-86.987Z" fill="url(#e)" fill-opacity=".8"/><path d="M253.508 111.452c.088-.356.184-.713.288-1.068 3.877-13.252 17.763-20.851 31.015-16.974 13.232 3.872 20.828 17.723 16.99 30.957 52.823 22.981 82.264 81.808 66.866 139.165-14.688 54.715-10.781 93.421 1.36 126.545 5.2 14.176-7.791 28.315-22.364 24.402L68.83 339.603c-14.573-3.914-18.73-22.657-7.132-32.323 27.1-22.581 49.875-54.122 64.569-108.841 15.375-57.24 70.135-93.375 127.241-86.987Z" fill="url(#f)" fill-opacity=".8"/><path d="m266.423 392.664-117.825-31.641c.099-.362.201-.725.308-1.088 9.46-32.333 43.341-50.876 75.675-41.415 31.823 9.311 50.287 42.278 41.842 74.144Z" fill="url(#g)"/><circle cx="407.276" cy="269.39" r="53" fill="url(#h)"/><rect x="257.776" y="224.39" width="188" height="66" rx="33" fill="url(#i)"/><rect x="257.776" y="224.39" width="188" height="66" rx="33" fill="url(#j)" fill-opacity=".4"/><rect x="257.776" y="224.39" width="188" height="66" rx="33" fill="url(#k)"/><path d="M372.292 222.39h-81.516c-19.33 0-35 15.67-35 35s15.67 35 35 35h71.571c.11-.664.224-1.331.34-2h-71.911c-18.226 0-33-14.775-33-33 0-18.226 14.774-33 33-33h81.676c-.048-.668-.101-1.335-.16-2Z" fill="#F2F1F3"/><path d="M373.776 235.39a2 2 0 1 1-4.001-.001 2 2 0 0 1 4.001.001Zm-14.5 9a3.5 3.5 0 1 0 0-7 3.5 3.5 0 0 0 0 7Zm51.5 26.5a4.5 4.5 0 1 1-9 0 4.5 4.5 0 0 1 9 0Zm-75 3a4.5 4.5 0 1 1-9 0 4.5 4.5 0 0 1 9 0Zm-39-24a3.5 3.5 0 1 1-7 0 3.5 3.5 0 0 1 7 0Zm57 9.5a2 2 0 1 0-.001-4.001 2 2 0 0 0 .001 4.001Zm-34 10a2 2 0 1 0-.001-4.001 2 2 0 0 0 .001 4.001Z" fill="#FFD84E"/><circle cx="411.79" cy="257.404" r="25" transform="rotate(16.309 411.79 257.404)" fill="url(#l)"/><circle cx="411.79" cy="257.404" r="25" transform="rotate(16.309 411.79 257.404)" fill="url(#m)" fill-opacity=".8"/><defs><radialGradient id="a" cx="0" cy="0" r="1" gradientUnits="userSpaceOnUse" gradientTransform="matrix(-122.7 -70.37622 629.71913 -1097.90695 263.609 418.278)"><stop offset=".303" stop-color="#8C46FF"/><stop offset=".701" stop-color="#D957DD"/></radialGradient><radialGradient id="b" cx="0" cy="0" r="1" gradientUnits="userSpaceOnUse" gradientTransform="matrix(.78975 75.53857 -139.32139 1.4566 206.662 362.526)"><stop offset=".427" stop-color="#340089"/><stop offset=".679" stop-color="#8D48FF" stop-opacity="0"/></radialGradient><radialGradient id="d" cx="0" cy="0" r="1" gradientUnits="userSpaceOnUse" gradientTransform="matrix(0 -33 87 0 342.776 276.89)"><stop offset=".407" stop-color="#A297AF"/><stop offset="1" stop-color="#A297AF" stop-opacity="0"/></radialGradient><radialGradient id="e" cx="0" cy="0" r="1" gradientUnits="userSpaceOnUse" gradientTransform="matrix(-.50003 30.99997 -88.97683 -1.4352 342.276 231.39)"><stop offset=".34" stop-color="#fff"/><stop offset="1" stop-color="#fff" stop-opacity="0"/></radialGradient><radialGradient id="f" cx="0" cy="0" r="1" gradientUnits="userSpaceOnUse" gradientTransform="rotate(-58.736 461.808 -.744) scale(98.27 83.7984)"><stop offset=".26" stop-color="#fff"/><stop offset="1" stop-color="#fff" stop-opacity="0"/></radialGradient><radialGradient id="g" cx="0" cy="0" r="1" gradientUnits="userSpaceOnUse" gradientTransform="rotate(-163.388 127.413 181.915) scale(205.581 203.006)"><stop offset=".234" stop-color="#E2D7F6"/><stop offset=".482" stop-color="#B5A7CB"/></radialGradient><radialGradient id="h" cx="0" cy="0" r="1" gradientUnits="userSpaceOnUse" gradientTransform="rotate(121.43 127.422 250.106) scale(50.8198 28.9132)"><stop offset=".271" stop-color="#A9A9A9"/><stop offset=".716" stop-color="#B1B1B1" stop-opacity=".5"/><stop offset=".934" stop-color="#DCDCDC" stop-opacity="0"/></radialGradient><radialGradient id="j" cx="0" cy="0" r="1" gradientUnits="userSpaceOnUse" gradientTransform="matrix(0 45 -151.317 0 351.776 271.39)"><stop offset=".444" stop-color="#9CD271" stop-opacity="0"/><stop offset="1" stop-color="#006292"/></radialGradient><radialGradient id="k" cx="0" cy="0" r="1" gradientUnits="userSpaceOnUse" gradientTransform="rotate(133.898 144.269 225.79) scale(36.7763 28.703)"><stop offset=".271" stop-color="#164399"/><stop offset=".716" stop-color="#2F5AAD" stop-opacity=".5"/><stop offset=".934" stop-color="#3F69BB" stop-opacity="0"/></radialGradient><radialGradient id="l" cx="0" cy="0" r="1" gradientUnits="userSpaceOnUse" gradientTransform="rotate(108.435 119.625 273.078) scale(45.96)"><stop stop-color="#fff"/><stop offset=".25" stop-color="#FFEFDA"/><stop offset=".645" stop-color="#C9B08F"/><stop offset=".832" stop-color="#E2D5C3"/></radialGradient><radialGradient id="m" cx="0" cy="0" r="1" gradientUnits="userSpaceOnUse" gradientTransform="rotate(97.815 93.651 308.267) scale(44.3777)"><stop offset=".446" stop-color="#fff" stop-opacity="0"/><stop offset=".841" stop-color="#fff"/></radialGradient><linearGradient id="c" x1="590.961" y1="-109.803" x2="-260.508" y2="728.492" gradientUnits="userSpaceOnUse"><stop offset=".395" stop-color="#E7E7E7"/><stop offset=".636" stop-color="#DECBFF"/></linearGradient><linearGradient id="i" x1="452.63" y1="257.318" x2="193.791" y2="249.97" gradientUnits="userSpaceOnUse"><stop offset=".189" stop-color="#0090FF"/><stop offset=".447" stop-color="#52DCC6"/><stop offset=".517" stop-color="#8EE779"/><stop offset=".766" stop-color="#D4EB94"/></linearGradient></defs></svg>