<svg xmlns:xlink="http://www.w3.org/1999/xlink" xmlns="http://www.w3.org/2000/svg" width="512" height="513" viewBox="0 0 512 513" fill="none"><path d="M330.033 76.676H178.969c-25.614 0-43.006 26.077-33.189 49.778l78.597 189.87c11.262 27.176 49.703 27.126 60.886-.09l77.998-189.879c9.728-23.682-7.654-49.68-33.228-49.68Z" fill="url(#a)"/><path d="M330.033 76.676H178.969c-25.614 0-43.006 26.077-33.189 49.778l78.597 189.87c11.262 27.176 49.703 27.126 60.886-.09l77.998-189.879c9.728-23.682-7.654-49.68-33.228-49.68Z" fill="url(#b)" fill-opacity=".9"/><path d="M256 437.676c81.186 0 147-65.814 147-147s-65.814-147-147-147-147 65.814-147 147 65.814 147 147 147Z" fill="url(#c)"/><path d="M256 437.676c81.186 0 147-65.814 147-147s-65.814-147-147-147-147 65.814-147 147 65.814 147 147 147Z" fill="url(#d)" fill-opacity=".7"/><path d="M347.601 176.168 289.353 317.58c-12.328 29.896-54.708 29.956-67.105.089l-58.647-141.252c.897-.718 1.815-1.435 2.732-2.142l58.997 142.119c11.27 27.117 49.74 27.067 60.931-.089l58.617-142.269c.917.697 1.825 1.414 2.723 2.132Z" fill="#414141"/><path d="M344.99 173.508c-52.209-39.813-126.914-39.82-178.99.24l59.013 142.556c11.303 27.202 49.891 27.152 61.114-.09L345 173.508h-.01Z" fill="url(#e)"/><path d="M254.5 436.676c19.606 0 35.5-16.566 35.5-37 0-20.435-15.894-37-35.5-37s-35.5 16.565-35.5 37c0 20.434 15.894 37 35.5 37Z" fill="url(#f)"/><path d="M254.5 436.676c19.606 0 35.5-16.566 35.5-37 0-20.435-15.894-37-35.5-37s-35.5 16.565-35.5 37c0 20.434 15.894 37 35.5 37Z" fill="url(#g)" fill-opacity=".8"/><path d="M346 169.313c-26.012-19.277-57.735-29.685-90.336-29.637-34.057 0-65.464 11.124-90.664 29.872l1.325 3.128c25.614-19.319 57.03-29.768 89.339-29.716 32.176-.053 63.47 10.31 89.031 29.481l1.305-3.128Z" fill="#414141"/><circle cx="271" cy="280.801" r="3" fill="#E9001B"/><circle cx="218.325" cy="225.551" r="3" fill="#E9001B"/><circle cx="262.125" cy="304.176" r="3.5" fill="#E9001B"/><circle cx="313.375" cy="201.176" r="3.5" fill="#E9001B"/><circle cx="273" cy="318.111" r="2" fill="#E9001B"/><circle cx="238.5" cy="280.801" r="2" fill="#E9001B"/><circle cx="300.25" cy="230.551" r="2" fill="#E9001B"/><circle cx="276" cy="271.176" r="2" fill="#E9001B"/><circle cx="212" cy="245.176" r="2" fill="#E9001B"/><circle cx="275" cy="214.176" r="2" fill="#E9001B"/><defs><radialGradient id="a" cx="0" cy="0" r="1" gradientUnits="userSpaceOnUse" gradientTransform="matrix(182.20311 -561.83102 493.07619 159.90576 127.69 662.344)"><stop offset=".706" stop-color="#F69400"/><stop offset=".928" stop-color="#414141"/></radialGradient><radialGradient id="b" cx="0" cy="0" r="1" gradientUnits="userSpaceOnUse" gradientTransform="rotate(103.052 85.378 194.361) scale(52.9607 113.929)"><stop offset=".154" stop-color="#858585"/><stop offset=".577" stop-color="#595959" stop-opacity="0"/></radialGradient><radialGradient id="d" cx="0" cy="0" r="1" gradientUnits="userSpaceOnUse" gradientTransform="matrix(57.92507 266.67447 -87.93897 19.10146 208.456 121.113)"><stop offset=".723" stop-color="#202020"/><stop offset="1" stop-color="#424242" stop-opacity="0"/></radialGradient><radialGradient id="e" cx="0" cy="0" r="1" gradientUnits="userSpaceOnUse" gradientTransform="matrix(184.59193 -505.89805 304.04912 110.94136 133.4 628.449)"><stop offset=".56" stop-color="#FEE39E"/><stop offset=".65" stop-color="#FFB900"/><stop offset=".79" stop-color="#FF5C39"/><stop offset=".88" stop-color="#DF4221"/><stop offset="1" stop-color="#711400"/></radialGradient><radialGradient id="f" cx="0" cy="0" r="1" gradientUnits="userSpaceOnUse" gradientTransform="matrix(-36.54907 65.5042 -64.13624 -35.7858 262.113 383.704)"><stop offset=".05" stop-color="#E8CCFF"/><stop offset=".23" stop-color="#C594FF"/><stop offset=".36" stop-color="#AD6CFF"/><stop offset=".51" stop-color="#8E42FF"/><stop offset=".78" stop-color="#E0538F"/></radialGradient><radialGradient id="g" cx="0" cy="0" r="1" gradientUnits="userSpaceOnUse" gradientTransform="matrix(-8.57501 65.07224 -62.52615 -8.2395 254.497 399.708)"><stop offset=".45" stop-color="#fff" stop-opacity="0"/><stop offset=".84" stop-color="#fff"/></radialGradient><linearGradient id="c" x1="-1.575" y1="927.059" x2="344.206" y2="165.358" gradientUnits="userSpaceOnUse"><stop offset=".576" stop-color="#F79400"/><stop offset=".689" stop-color="#815E2A"/><stop offset=".773" stop-color="#414141"/></linearGradient></defs></svg>